<svg 
 xmlns="http://www.w3.org/2000/svg"
 xmlns:xlink="http://www.w3.org/1999/xlink"
 viewBox="0 0 400 400"
>
<path fill-rule="evenodd"  stroke="rgb(255, 0, 0)" stroke-width="20px" stroke-linecap="butt" stroke-linejoin="miter" fill="none"
 d="M194.1000,20.000 C291.650,20.000 369.1000,98.350 369.1000,194.1000 C369.1000,291.650 291.650,369.1000 194.1000,369.1000 C98.350,369.1000 20.000,291.650 20.000,194.1000 C20.000,98.350 98.350,20.000 194.1000,20.000 Z"/>
<path fill-rule="evenodd"  fill="rgb(255, 0, 0)"
 d="M193.811,70.180 C197.976,71.624 209.981,100.298 213.426,105.843 C228.122,129.494 244.641,152.035 261.571,173.602 C268.306,180.734 275.044,187.868 281.780,195.000 C275.044,202.132 268.306,209.266 261.571,216.398 C239.286,244.960 207.497,282.300 196.189,319.820 C195.396,319.820 194.604,319.820 193.811,319.820 C183.773,284.842 149.366,243.068 128.429,216.398 C121.694,209.266 114.956,202.132 108.220,195.000 C114.956,187.868 121.694,180.734 128.429,173.602 C150.737,145.214 182.544,107.566 193.811,70.180 Z"/>
</svg>