<svg 
 xmlns="http://www.w3.org/2000/svg"
 xmlns:xlink="http://www.w3.org/1999/xlink"
 viewBox="0 0 400 400"
>
<path fill-rule="evenodd"  fill="rgb(255, 0, 0)"
 d="M302.208,190.479 L202.750,190.479 L202.750,120.084 C195.186,120.084 192.558,120.084 187.250,120.084 L187.250,190.479 L87.792,190.479 L87.792,119.438 L128.092,119.438 C127.288,118.025 125.436,114.338 124.605,109.099 C124.605,97.043 129.341,75.844 154.959,75.522 C180.576,75.199 195.000,101.349 195.000,101.349 C195.000,101.349 207.109,75.737 235.203,75.522 C266.418,76.167 265.395,106.085 265.395,109.099 C265.395,111.598 262.736,117.494 261.827,119.438 L302.208,119.438 L302.208,190.479 ZM154.959,91.021 C136.230,90.591 140.750,109.099 140.750,109.099 C140.750,109.099 141.776,116.621 152.020,119.438 L186.386,119.438 C182.993,109.538 171.915,90.390 154.959,91.021 ZM235.203,91.021 C215.516,92.816 208.409,108.473 203.675,119.438 L239.557,119.438 C253.571,115.162 255.192,90.727 235.203,91.021 ZM187.250,314.478 L101.355,314.478 L101.355,205.979 L187.250,205.979 L187.250,314.478 ZM288.645,314.478 L202.750,314.478 L202.750,205.979 L288.645,205.979 L288.645,314.478 Z"/>
<path fill-rule="evenodd"  stroke="rgb(255, 0, 0)" stroke-width="20px" stroke-linecap="butt" stroke-linejoin="miter" fill="none"
 d="M194.1000,20.000 C291.650,20.000 369.1000,98.350 369.1000,194.1000 C369.1000,291.650 291.650,369.1000 194.1000,369.1000 C98.350,369.1000 20.000,291.650 20.000,194.1000 C20.000,98.350 98.350,20.000 194.1000,20.000 Z"/>
</svg>