<svg 
 xmlns="http://www.w3.org/2000/svg"
 xmlns:xlink="http://www.w3.org/1999/xlink"
 viewBox="0 0 400 400">
<path fill-rule="evenodd"  stroke="rgb(255, 0, 0)" stroke-width="20px" stroke-linecap="butt" stroke-linejoin="miter" fill="none"
 d="M194.1000,20.000 C291.650,20.000 369.1000,98.350 369.1000,194.1000 C369.1000,291.650 291.650,369.1000 194.1000,369.1000 C98.350,369.1000 20.000,291.650 20.000,194.1000 C20.000,98.350 98.350,20.000 194.1000,20.000 Z"/>
<path fill-rule="evenodd"  fill="rgb(255, 0, 0)"
 d="M306.919,187.450 C293.246,224.248 265.624,245.889 235.555,266.895 C224.771,274.429 212.255,287.801 196.940,289.929 C186.803,291.338 152.941,264.426 145.128,258.903 C112.136,235.581 52.073,176.427 91.361,123.517 C97.994,114.584 110.523,105.748 122.644,102.363 C126.879,101.580 131.116,100.796 135.352,100.013 C167.357,99.510 182.728,112.912 195.963,130.099 C207.456,96.484 256.404,99.859 262.928,101.423 C281.279,105.823 295.826,115.878 304.475,129.628 C313.545,144.047 313.252,170.405 306.919,187.450 Z"/>
</svg>